<mxfile host="app.diagrams.net" modified="2024-07-09T03:53:36.710Z" agent="Mozilla/5.0 (Windows NT 10.0; Win64; x64) AppleWebKit/537.36 (KHTML, like Gecko) Chrome/126.0.0.0 Safari/537.36" version="24.6.4" etag="Zg6mOjadrycdtyw-oTt2" type="github">
  <diagram name="第 1 页" id="EpD0GBd6TBAOmnihcHkV">
    <mxGraphModel>
      <root>
        <mxCell id="0" />
        <mxCell id="1" parent="0" />
      </root>
    </mxGraphModel>
  </diagram>
</mxfile>
